<?xml version="1.0" encoding="utf-8"?>
<svg xmlns="http://www.w3.org/2000/svg" viewBox="113.378 148.781 30.944 24.887" width="30.944px" height="24.887px"><path d="M 122.055 161.224 C 122.055 164.663 125.221 167.446 129.096 167.446 C 129.7 167.448 130.303 167.394 130.897 167.282 L 130.897 167.446 C 133.844 166.245 138.373 165.372 144.268 164.608 C 142.412 169.847 136.354 173.668 129.096 173.668 C 120.418 173.668 113.378 168.101 113.378 161.224 C 113.378 154.348 120.418 148.781 129.096 148.781 C 136.354 148.781 142.467 152.656 144.322 157.95 C 139.083 157.295 134.881 156.531 131.933 155.549 L 131.497 155.385 L 130.897 155.167 C 130.309 155.01 129.703 154.936 129.096 154.948 C 125.221 154.948 122.055 157.732 122.055 161.17" fill="#E30613" style="stroke-width: 1;" id="object-0" transform="matrix(1, 0, 0, 1, 0, -7.105427357601002e-15)"/></svg>
